<svg width="39" height="39" viewBox="0 0 39 39" fill="none" xmlns="http://www.w3.org/2000/svg">
<path d="M19.4988 0.299805C14.2884 0.299805 13.6332 0.323805 11.586 0.415005C9.53883 0.511005 8.14443 0.832605 6.92283 1.3078C5.64086 1.78858 4.47996 2.54476 3.52203 3.523C2.54378 4.48095 1.78761 5.64183 1.30683 6.9238C0.831628 8.143 0.507628 9.5398 0.414028 11.5798C0.322828 13.6318 0.298828 14.2846 0.298828 19.5021C0.298828 24.7149 0.322828 25.3677 0.414028 27.4149C0.510028 29.4597 0.831628 30.8541 1.30683 32.0757C1.79883 33.3381 2.45403 34.4085 3.52203 35.4765C4.58763 36.5445 5.65803 37.2021 6.92043 37.6917C8.14443 38.1669 9.53643 38.4909 11.5812 38.5845C13.6308 38.6757 14.2836 38.6997 19.4988 38.6997C24.714 38.6997 25.3644 38.6757 27.414 38.5845C29.4564 38.4885 30.8556 38.1669 32.0772 37.6917C33.3584 37.2107 34.5183 36.4545 35.4756 35.4765C36.5436 34.4085 37.1988 33.3381 37.6908 32.0757C38.1636 30.8541 38.4876 29.4597 38.5836 27.4149C38.6748 25.3677 38.6988 24.7149 38.6988 19.4997C38.6988 14.2846 38.6748 13.6318 38.5836 11.5822C38.4876 9.5398 38.1636 8.143 37.6908 6.9238C37.2101 5.64183 36.4539 4.48095 35.4756 3.523C34.5177 2.54476 33.3569 1.78858 32.0748 1.3078C30.8508 0.832605 29.454 0.508605 27.4116 0.415005C25.362 0.323805 24.7116 0.299805 19.494 0.299805H19.4988ZM17.778 3.7606H19.5012C24.6276 3.7606 25.2348 3.7774 27.258 3.871C29.13 3.955 30.1476 4.2694 30.8244 4.531C31.7196 4.879 32.3604 5.2966 33.0324 5.9686C33.7044 6.6406 34.1196 7.279 34.4676 8.1766C34.7316 8.851 35.0436 9.8686 35.1276 11.7406C35.2212 13.7638 35.2404 14.371 35.2404 19.4949C35.2404 24.6189 35.2212 25.2285 35.1276 27.2517C35.0436 29.1237 34.7292 30.1389 34.4676 30.8157C34.1576 31.6484 33.6666 32.4017 33.03 33.0213C32.358 33.6933 31.7196 34.1085 30.822 34.4565C30.15 34.7205 29.1324 35.0325 27.258 35.1189C25.2348 35.2101 24.6276 35.2317 19.5012 35.2317C14.3748 35.2317 13.7652 35.2101 11.742 35.1189C9.87003 35.0325 8.85483 34.7205 8.17803 34.4565C7.34483 34.1477 6.59066 33.6575 5.97003 33.0213C5.33228 32.4012 4.84041 31.647 4.53003 30.8133C4.26843 30.1389 3.95403 29.1213 3.87003 27.2493C3.77883 25.2261 3.75963 24.6189 3.75963 19.4901C3.75963 14.3614 3.77883 13.759 3.87003 11.7358C3.95643 9.8638 4.26843 8.8462 4.53243 8.1694C4.88043 7.2742 5.29803 6.6334 5.97003 5.9614C6.64203 5.2894 7.28043 4.8742 8.17803 4.5262C8.85483 4.2622 9.87003 3.9502 11.742 3.8638C13.5132 3.7822 14.1996 3.7582 17.778 3.7558V3.7606ZM29.7492 6.9478C29.4467 6.9478 29.1471 7.0074 28.8675 7.12318C28.5879 7.23897 28.334 7.40868 28.1201 7.62262C27.9062 7.83658 27.7364 8.09056 27.6206 8.3701C27.5048 8.64963 27.4452 8.94924 27.4452 9.2518C27.4452 9.55437 27.5048 9.85398 27.6206 10.1335C27.7364 10.413 27.9062 10.667 28.1201 10.881C28.334 11.0949 28.5879 11.2646 28.8675 11.3804C29.1471 11.4962 29.4467 11.5558 29.7492 11.5558C30.3603 11.5558 30.9464 11.3131 31.3784 10.881C31.8105 10.4489 32.0532 9.86286 32.0532 9.2518C32.0532 8.64075 31.8105 8.05471 31.3784 7.62262C30.9464 7.19055 30.3603 6.9478 29.7492 6.9478ZM19.5012 9.6406C18.1934 9.6202 16.8945 9.86017 15.6804 10.3465C14.4662 10.8329 13.3609 11.556 12.4288 12.4736C11.4967 13.3913 10.7565 14.4852 10.2512 15.6917C9.746 16.8981 9.48579 18.1931 9.48579 19.5009C9.48579 20.8089 9.746 22.1039 10.2512 23.3103C10.7565 24.5168 11.4967 25.6107 12.4288 26.5284C13.3609 27.446 14.4662 28.1691 15.6804 28.6554C16.8945 29.1419 18.1934 29.3819 19.5012 29.3613C22.0898 29.321 24.5585 28.2644 26.3748 26.4195C28.191 24.5748 29.2089 22.0898 29.2089 19.5009C29.2089 16.9122 28.191 14.4272 26.3748 12.5824C24.5585 10.7376 22.0898 9.68098 19.5012 9.6406ZM19.5012 13.099C20.3418 13.099 21.1742 13.2646 21.9507 13.5862C22.7273 13.9079 23.4329 14.3794 24.0273 14.9737C24.6216 15.5681 25.0931 16.2737 25.4148 17.0504C25.7364 17.8269 25.902 18.6593 25.902 19.4997C25.902 20.3403 25.7364 21.1727 25.4148 21.9492C25.0931 22.7259 24.6216 23.4315 24.0273 24.0258C23.4329 24.6203 22.7273 25.0917 21.9507 25.4133C21.1742 25.7351 20.3418 25.9005 19.5012 25.9005C17.8037 25.9005 16.1756 25.2263 14.9752 24.0258C13.7748 22.8255 13.1004 21.1974 13.1004 19.4997C13.1004 17.8022 13.7748 16.1741 14.9752 14.9737C16.1756 13.7734 17.8037 13.099 19.5012 13.099Z" fill="white"/>
</svg>
