<svg width="153" height="24" viewBox="0 0 153 24" fill="none" xmlns="http://www.w3.org/2000/svg">
    <path d="M141.709 23.5339C141.2 23.5339 140.78 23.3896 140.447 23.1011C140.115 22.8126 139.949 22.4021 139.949 21.8695V4.82651C139.949 4.16077 139.916 3.52832 139.85 2.92915C139.783 2.32998 139.661 1.7641 139.484 1.23151C139.839 0.898635 140.193 0.687817 140.547 0.599053C140.924 0.488096 141.444 0.432617 142.108 0.432617H152.071C152.293 0.432617 152.437 0.55467 152.503 0.798775C152.591 1.02069 152.614 1.29808 152.569 1.63095C152.525 1.96382 152.425 2.2745 152.27 2.56299C152.138 2.82929 151.96 3.00682 151.739 3.09558C150.366 2.8071 148.949 2.57409 147.488 2.39655C146.027 2.19683 144.51 2.08587 142.938 2.06368L143.005 21.9361C144.045 21.9139 145.13 21.8473 146.259 21.7364C147.411 21.6032 148.518 21.459 149.58 21.3036C150.643 21.1483 151.584 20.9819 152.403 20.8043C152.603 20.9153 152.746 21.1261 152.835 21.4368C152.946 21.7253 153.001 22.0359 153.001 22.3688C153.001 22.6795 152.935 22.9569 152.802 23.201C152.691 23.4229 152.503 23.5339 152.237 23.5339H141.709ZM142.407 12.3161V10.5519H150.909C150.997 10.8626 151.031 11.1733 151.008 11.4839C151.008 11.7724 150.975 12.0498 150.909 12.3161H142.407Z"
          fill="black"/>
    <path d="M120.303 23.5337C119.75 23.5337 119.318 23.3895 119.008 23.101C118.698 22.7903 118.543 22.3909 118.543 21.9027L118.477 4.49351C118.477 3.82776 118.466 3.10654 118.443 2.32985C118.421 1.53096 118.322 0.865213 118.145 0.33262C118.742 0.266045 119.462 0.221662 120.303 0.199471C121.145 0.155089 121.997 0.132898 122.86 0.132898C123.724 0.110706 124.488 0.0996094 125.152 0.0996094C128.274 0.0996094 130.687 1.06494 132.392 2.99559C134.097 4.92624 134.949 7.8666 134.949 11.8167C134.949 15.9221 134.097 18.9068 132.392 20.7709C130.709 22.6128 128.34 23.5337 125.285 23.5337H120.303ZM121.532 22.2355H125.152C126.569 22.2355 127.753 21.9027 128.706 21.2369C129.658 20.549 130.377 19.4616 130.864 17.9748C131.351 16.4658 131.595 14.4685 131.595 11.9831C131.595 8.29933 131.052 5.61417 129.968 3.92763C128.883 2.24108 127.277 1.39781 125.152 1.39781H121.499L121.532 22.2355Z"
          fill="black"/>
    <path d="M106.464 0C106.862 0 107.227 0.0776696 107.56 0.233009C107.892 0.388349 108.124 0.665742 108.257 1.06519L114.733 21.5368C114.822 21.803 114.932 22.0915 115.065 22.4022C115.22 22.7129 115.397 22.9792 115.596 23.2011C115.441 23.3786 115.22 23.534 114.932 23.6671C114.667 23.8225 114.301 23.9001 113.836 23.9001C113.349 23.9001 112.929 23.8003 112.574 23.6006C112.242 23.4008 112.032 23.1012 111.943 22.7018L105.534 1.19834L105.965 1.23162L100.021 21.6033C99.9764 21.803 99.9321 22.0028 99.8879 22.2025C99.8436 22.4022 99.8214 22.5908 99.8214 22.7684C99.8214 22.9459 99.8436 23.1123 99.8879 23.2677C99.9321 23.4008 99.9875 23.5118 100.054 23.6006C99.8325 23.6893 99.589 23.7559 99.3233 23.8003C99.0797 23.8668 98.7698 23.9001 98.3934 23.9001C97.8177 23.9001 97.386 23.7892 97.0982 23.5673C96.8103 23.3675 96.6775 23.0347 96.6996 22.5687C96.6996 22.3467 96.7328 22.0915 96.7993 21.8031C96.8657 21.5146 96.9432 21.215 97.0317 20.9043L103.973 0.466019C104.792 0.15534 105.622 0 106.464 0ZM100.884 14.5465H111.512V16.3107H100.884V14.5465Z"
          fill="black"/>
    <path d="M76.8558 23.9333C76.6122 23.9333 76.3797 23.8889 76.1583 23.8001C75.9369 23.7114 75.7377 23.6004 75.5605 23.4672C75.7377 22.9347 75.8484 22.3133 75.8927 21.6032C75.9591 20.8709 75.9923 20.1829 75.9923 19.5394V4.59346C75.9923 3.75019 75.9701 2.99568 75.9259 2.32994C75.9037 1.64201 75.8484 1.04284 75.7598 0.532438C75.9148 0.377099 76.1473 0.277238 76.4572 0.232854C76.7893 0.166281 77.1104 0.14409 77.4203 0.166281C77.7303 0.188472 77.9296 0.24395 78.0181 0.332716C78.7266 1.37571 79.5458 2.56295 80.4757 3.89443C81.4278 5.22592 82.4019 6.61288 83.3982 8.05532C84.3946 9.47557 85.3687 10.8958 86.3208 12.3161C87.295 13.7141 88.1806 15.0234 88.9776 16.2439C89.7747 17.4645 90.4167 18.5186 90.9038 19.4062L90.2064 3.19541C90.1621 2.41871 90.2286 1.76406 90.4057 1.23147C90.6049 0.698875 90.9149 0.366003 91.3356 0.232854C91.5348 0.188472 91.7452 0.188472 91.9666 0.232854C92.2101 0.255045 92.4426 0.310524 92.664 0.399289C92.5976 0.776543 92.5754 1.23147 92.5976 1.76406C92.6197 2.29665 92.6308 2.76267 92.6308 3.16212V19.6059C92.6308 20.4492 92.6419 21.1815 92.664 21.8029C92.6861 22.4243 92.7304 22.979 92.7968 23.4672C92.6861 23.6004 92.4869 23.7003 92.1991 23.7668C91.9334 23.8334 91.6566 23.8667 91.3688 23.8667C91.081 23.8667 90.8485 23.8334 90.6714 23.7668C89.7857 22.6573 88.9001 21.5366 88.0145 20.4048C87.151 19.2509 86.3097 18.0969 85.4905 16.943C84.6713 15.789 83.8853 14.6573 83.1326 13.5477C82.4019 12.4381 81.7045 11.3729 81.0403 10.3521C80.3982 9.30914 79.8004 8.34381 79.2469 7.45615C78.6934 6.5685 78.2174 5.76961 77.8189 5.05948L78.4167 22.1025C78.4388 22.6573 78.2838 23.1011 77.9517 23.434C77.6417 23.7668 77.2764 23.9333 76.8558 23.9333Z"
          fill="black"/>
    <path d="M59.8169 23.5339C59.3077 23.5339 58.887 23.3896 58.5549 23.1011C58.2228 22.8126 58.0567 22.4021 58.0567 21.8695V4.82651C58.0567 4.16077 58.0235 3.52832 57.9571 2.92915C57.8907 2.32998 57.7689 1.7641 57.5918 1.23151C57.946 0.898635 58.3003 0.687817 58.6545 0.599053C59.0309 0.488096 59.5512 0.432617 60.2154 0.432617H70.1786C70.4 0.432617 70.5439 0.55467 70.6104 0.798775C70.6989 1.02069 70.721 1.29808 70.6768 1.63095C70.6325 1.96382 70.5329 2.2745 70.3779 2.56299C70.245 2.82929 70.0679 3.00682 69.8465 3.09558C68.4738 2.8071 67.0568 2.57409 65.5956 2.39655C64.1343 2.19683 62.6177 2.08587 61.0457 2.06368L61.1121 21.9361C62.1527 21.9139 63.2376 21.8473 64.3668 21.7364C65.5181 21.6032 66.6251 21.459 67.6878 21.3036C68.7506 21.1483 69.6915 20.9819 70.5107 20.8043C70.71 20.9153 70.8539 21.1261 70.9425 21.4368C71.0532 21.7253 71.1085 22.0359 71.1085 22.3688C71.1085 22.6795 71.0421 22.9569 70.9092 23.201C70.7985 23.4229 70.6103 23.5339 70.3447 23.5339H59.8169ZM60.5143 12.3161V10.5519H69.0162C69.1048 10.8626 69.138 11.1733 69.1159 11.4839C69.1159 11.7724 69.0827 12.0498 69.0162 12.3161H60.5143Z"
          fill="black"/>
    <path d="M39.7075 23.9334C39.1983 23.9334 38.7776 23.7892 38.4455 23.5007C38.1134 23.19 37.9474 22.7795 37.9474 22.2691V4.49376C37.9474 4.22746 37.9363 3.8724 37.9142 3.42857C37.892 2.98474 37.8477 2.51872 37.7813 2.03051C37.7149 1.5423 37.6153 1.12067 37.4824 0.765603C37.9031 0.565881 38.5119 0.388349 39.309 0.233009C40.1061 0.0776696 41.202 0 42.5969 0C45.7408 0 48.0877 0.48821 49.6375 1.46463C51.2095 2.41886 51.9954 4.00555 51.9954 6.22469C51.9954 7.53398 51.6855 8.67684 51.0656 9.65326C50.4678 10.6075 49.6375 11.362 48.5748 11.9168C47.512 12.4716 46.2832 12.7933 44.8884 12.8821L45.1541 12.3828C46.1282 12.3606 46.9142 12.5049 47.512 12.8155C48.1319 13.1262 48.6301 13.5478 49.0065 14.0804C49.405 14.5908 49.7593 15.1678 50.0692 15.8114L51.6633 19.6061C51.9512 20.294 52.2169 20.7822 52.4604 21.0707C52.7039 21.3592 52.9807 21.5146 53.2907 21.5368C53.4014 21.5368 53.5453 21.5146 53.7224 21.4702C53.8995 21.4036 54.0656 21.2926 54.2206 21.1373C54.3091 21.3148 54.3645 21.4813 54.3866 21.6366C54.4088 21.7698 54.4198 21.914 54.4198 22.0693C54.4198 22.491 54.298 22.846 54.0545 23.1345C53.811 23.4008 53.5231 23.5895 53.191 23.7004C52.8589 23.8336 52.56 23.9001 52.2943 23.9001C51.6523 23.9001 51.1098 23.7559 50.667 23.4674C50.2464 23.1789 49.881 22.7684 49.5711 22.2358C49.2611 21.681 48.9622 21.0374 48.6744 20.3051L47.2463 16.6103C47.0249 16.0555 46.7814 15.534 46.5157 15.0458C46.25 14.5354 45.8626 14.1248 45.3533 13.8141C44.8441 13.5035 44.1245 13.3481 43.1946 13.3481H40.6042L40.3053 12.0166C40.726 12.0388 41.1799 12.061 41.667 12.0832C42.154 12.0832 42.7076 12.0832 43.3275 12.0832C44.3902 12.061 45.3201 11.8169 46.1172 11.3509C46.9142 10.8849 47.5342 10.2302 47.977 9.38696C48.4419 8.54369 48.6744 7.57836 48.6744 6.49098C48.6744 4.78225 48.2094 3.48405 47.2795 2.59639C46.3718 1.70874 44.8773 1.26491 42.7961 1.26491C42.3754 1.26491 42.0212 1.276 41.7334 1.2982C41.4455 1.2982 41.202 1.30929 41.0027 1.33148V19.6727C41.0027 19.9168 41.0138 20.2607 41.036 20.7046C41.0581 21.1262 41.1024 21.57 41.1688 22.0361C41.2352 22.4799 41.3349 22.8793 41.4677 23.2344C41.3349 23.3675 41.1134 23.5118 40.8035 23.6671C40.5157 23.8447 40.1503 23.9334 39.7075 23.9334Z"
          fill="black"/>
    <path d="M21.7759 23.5339C21.2667 23.5339 20.846 23.3896 20.5139 23.1011C20.1818 22.8126 20.0157 22.4021 20.0157 21.8695V4.82651C20.0157 4.16077 19.9825 3.52832 19.9161 2.92915C19.8497 2.32998 19.7279 1.7641 19.5508 1.23151C19.905 0.898635 20.2593 0.687817 20.6135 0.599053C20.9899 0.488096 21.5102 0.432617 22.1744 0.432617H32.1376C32.359 0.432617 32.5029 0.55467 32.5693 0.798775C32.6579 1.02069 32.68 1.29808 32.6358 1.63095C32.5915 1.96382 32.4918 2.2745 32.3369 2.56299C32.204 2.82929 32.0269 3.00682 31.8055 3.09558C30.4328 2.8071 29.0158 2.57409 27.5545 2.39655C26.0933 2.19683 24.5767 2.08587 23.0047 2.06368L23.0711 21.9361C24.1117 21.9139 25.1966 21.8473 26.3257 21.7364C27.477 21.6032 28.5841 21.459 29.6468 21.3036C30.7095 21.1483 31.6505 20.9819 32.4697 20.8043C32.669 20.9153 32.8129 21.1261 32.9014 21.4368C33.0121 21.7253 33.0675 22.0359 33.0675 22.3688C33.0675 22.6795 33.0011 22.9569 32.8682 23.201C32.7575 23.4229 32.5693 23.5339 32.3036 23.5339H21.7759ZM22.4733 12.3161V10.5519H30.9752C31.0638 10.8626 31.097 11.1733 31.0749 11.4839C31.0749 11.7724 31.0416 12.0498 30.9752 12.3161H22.4733Z"
          fill="black"/>
    <path d="M7.50559 24C5.77864 24 4.36166 23.7781 3.25464 23.3343C2.14762 22.8904 1.32842 22.3024 0.797054 21.57C0.265685 20.8155 0 19.9944 0 19.1068C0 18.663 0.0774914 18.2746 0.232474 17.9417C0.409597 17.6089 0.686352 17.3648 1.06274 17.2094C1.46127 17.0319 2.00371 16.9986 2.69006 17.1096C2.64578 17.3315 2.61257 17.5645 2.59043 17.8086C2.59043 18.0305 2.6015 18.2857 2.62364 18.5742C2.69006 19.3509 2.9336 20.0499 3.35427 20.6713C3.77494 21.2926 4.36166 21.7809 5.11443 22.1359C5.8672 22.491 6.78603 22.6685 7.87091 22.6685C9.19933 22.6685 10.2953 22.3467 11.1588 21.7032C12.0222 21.0596 12.454 20.0721 12.454 18.7406C12.454 17.8752 12.2547 17.1318 11.8562 16.5104C11.4798 15.889 10.9041 15.3121 10.1292 14.7795C9.35432 14.2247 8.41335 13.6366 7.30633 13.0153C6.00005 12.2829 4.85982 11.5839 3.88564 10.9182C2.91146 10.2302 2.15869 9.46463 1.62732 8.62136C1.09595 7.77808 0.830265 6.75728 0.830265 5.55895C0.830265 4.22746 1.1513 3.16227 1.79337 2.36338C2.45758 1.5423 3.3432 0.943134 4.45022 0.565879C5.55724 0.188626 6.75282 0 8.03696 0C10.0296 0 11.6458 0.355062 12.8857 1.06519C14.1256 1.75312 14.7455 2.75173 14.7455 4.06103C14.7455 4.50485 14.6348 4.88211 14.4134 5.19279C14.192 5.48128 13.7935 5.65881 13.2178 5.72538C12.9078 5.79195 12.5536 5.78086 12.1551 5.69209C12.1994 5.4258 12.2104 5.1706 12.1883 4.92649C12.1661 4.66019 12.1329 4.41609 12.0887 4.19417C12.0222 3.59501 11.8008 3.0846 11.4244 2.66297C11.0481 2.21914 10.5388 1.88627 9.89676 1.66436C9.27682 1.42025 8.54619 1.2982 7.70486 1.2982C7.08493 1.2982 6.46499 1.39806 5.84506 1.59778C5.22513 1.77531 4.70483 2.10818 4.28417 2.59639C3.88564 3.06241 3.68638 3.71706 3.68638 4.56033C3.68638 5.40361 3.88564 6.13592 4.28417 6.75728C4.70483 7.37864 5.30262 7.95562 6.07754 8.48821C6.87459 9.0208 7.8377 9.60887 8.96686 10.2524C10.1403 10.8738 11.2141 11.5284 12.1883 12.2164C13.1846 12.9043 13.9706 13.7032 14.5462 14.613C15.144 15.5007 15.4429 16.577 15.4429 17.8419C15.4429 18.6186 15.299 19.3731 15.0112 20.1054C14.7234 20.8377 14.2584 21.5035 13.6163 22.1026C12.9964 22.6796 12.1772 23.1456 11.1588 23.5007C10.1624 23.8336 8.94472 24 7.50559 24Z"
          fill="black"/>
</svg>
